<svg width="20" height="20" viewBox="0 0 20 20" fill="none" xmlns="http://www.w3.org/2000/svg">
<g clip-path="url(#clip0_2443_4067)">
<rect width="20" height="20" rx="10" fill="white"/>
<path d="M19.2717 8.22333L17.4792 6.42833V4.99666C17.4787 4.33544 17.2161 3.70137 16.7489 3.2335C16.2816 2.76564 15.6479 2.50215 14.9867 2.50083H13.5567L11.7642 0.706661C10.8217 -0.235839 9.18001 -0.235839 8.23834 0.706661L6.44585 2.50083H5.01585C4.35455 2.50193 3.72071 2.76535 3.25342 3.23326C2.78613 3.70118 2.52356 4.33537 2.52334 4.99666V6.42833L0.730011 8.22333C0.263723 8.69223 0.00198364 9.32663 0.00198364 9.98791C0.00198364 10.6492 0.263723 11.2836 0.730011 11.7525L2.52251 13.5475V14.9792C2.52295 15.6404 2.78559 16.2744 3.25283 16.7423C3.72008 17.2102 4.35379 17.4737 5.01501 17.475H6.44501L8.23751 19.2692C8.70835 19.74 9.33501 20 10.0008 20C10.6667 20 11.2925 19.74 11.7633 19.2692L13.5558 17.475H14.9858C15.6471 17.4739 16.281 17.2105 16.7483 16.7426C17.2156 16.2746 17.4781 15.6405 17.4783 14.9792V13.5475L19.2717 11.7525C19.738 11.2836 19.9997 10.6492 19.9997 9.98791C19.9997 9.32663 19.738 8.69223 19.2717 8.22333ZM15.17 8.50916L10.9583 12.6717C10.4467 13.18 9.77251 13.435 9.09918 13.435C8.42584 13.435 7.75501 13.1808 7.24168 12.6742L5.07585 10.5917C4.99809 10.5146 4.93627 10.423 4.89392 10.3221C4.85157 10.2212 4.82951 10.1129 4.82901 10.0034C4.82851 9.89395 4.84957 9.78547 4.89099 9.68415C4.93241 9.58283 4.99339 9.49066 5.07043 9.41291C5.14747 9.33516 5.23907 9.27334 5.34001 9.23099C5.44094 9.18864 5.54922 9.16658 5.65868 9.16608C5.76814 9.16557 5.87662 9.18663 5.97794 9.22806C6.07926 9.26948 6.17142 9.33045 6.24918 9.40749L8.41418 11.4892C8.59665 11.6693 8.84275 11.7703 9.09918 11.7703C9.3556 11.7703 9.6017 11.6693 9.78418 11.4892L13.9967 7.32583C14.1537 7.17023 14.3661 7.08339 14.5872 7.08441C14.8082 7.08542 15.0198 7.17421 15.1754 7.33124C15.331 7.48827 15.4179 7.70068 15.4168 7.92174C15.4158 8.1428 15.327 8.35357 15.17 8.50916Z" fill="#A47052"/>
</g>
<defs>
<clipPath id="clip0_2443_4067">
<rect width="20" height="20" rx="10" fill="white"/>
</clipPath>
</defs>
</svg>
