<svg width="20" height="20" viewBox="0 0 20 20" fill="none" xmlns="http://www.w3.org/2000/svg">
<path d="M9.99917 19.9983C9.36678 19.9988 8.74197 19.8607 8.16868 19.5938C7.59539 19.3269 7.08753 18.9376 6.68083 18.4533C6.64332 18.4076 6.59507 18.3719 6.5404 18.3494C6.48573 18.3268 6.42633 18.3182 6.3675 18.3242C5.73757 18.3774 5.1036 18.2927 4.50968 18.0761C3.91576 17.8596 3.37614 17.5162 2.92833 17.07C2.48071 16.6232 2.13645 16.0837 1.91977 15.4895C1.70309 14.8953 1.61925 14.2609 1.67417 13.6308C1.68002 13.5721 1.67129 13.5129 1.64876 13.4584C1.62623 13.4039 1.59059 13.3558 1.545 13.3183C0.5625 12.4908 0 11.2808 0 9.99917C0 8.7175 0.563333 7.5075 1.545 6.68083C1.59086 6.64341 1.62674 6.5952 1.64943 6.54052C1.67211 6.48585 1.6809 6.4264 1.675 6.3675C1.62009 5.73743 1.70392 5.10298 1.9206 4.5088C2.13728 3.91462 2.48155 3.37514 2.92917 2.92833C3.37537 2.47987 3.91476 2.13504 4.5091 1.9183C5.10344 1.70157 5.73818 1.61822 6.36833 1.67417C6.42716 1.68016 6.48656 1.67151 6.54124 1.64897C6.59591 1.62643 6.64415 1.59071 6.68167 1.545C7.50833 0.5625 8.7175 0 10 0C11.2825 0 12.4917 0.563333 13.3183 1.545C13.3983 1.63917 13.5017 1.68333 13.6317 1.67417C14.2616 1.62068 14.8957 1.70518 15.4896 1.92178C16.0836 2.13839 16.6232 2.48188 17.0708 2.92833C17.5185 3.37514 17.8627 3.91462 18.0794 4.5088C18.2961 5.10298 18.3799 5.73743 18.325 6.3675C18.3191 6.4262 18.3279 6.48543 18.3504 6.53994C18.3729 6.59446 18.4086 6.64257 18.4542 6.68C19.4367 7.5075 19.9992 8.7175 19.9992 9.99917C19.9992 11.2808 19.4358 12.4908 18.4542 13.3175C18.4083 13.3549 18.3724 13.4031 18.3497 13.4578C18.3271 13.5125 18.3183 13.5719 18.3242 13.6308C18.3791 14.2609 18.2952 14.8953 18.0786 15.4895C17.8619 16.0837 17.5176 16.6232 17.07 17.07C16.6242 17.519 16.0849 17.8642 15.4904 18.081C14.896 18.2978 14.261 18.3808 13.6308 18.3242C13.5721 18.319 13.5129 18.328 13.4584 18.3505C13.4039 18.373 13.3555 18.4082 13.3175 18.4533C12.9109 18.9377 12.4031 19.3271 11.8298 19.594C11.2564 19.861 10.6316 19.999 9.99917 19.9983ZM6.40417 17.4883C6.75833 17.4883 7.08667 17.6408 7.31917 17.9167C7.98667 18.71 8.96417 19.165 10 19.165C11.0358 19.165 12.0133 18.71 12.6808 17.9167C12.9358 17.6133 13.3117 17.4583 13.7042 17.4933C14.7383 17.5808 15.75 17.2125 16.4825 16.48C17.215 15.7475 17.5842 14.735 17.4958 13.7008C17.4625 13.3058 17.6167 12.9342 17.92 12.6792C18.7125 12.0108 19.1675 11.0333 19.1675 9.99833C19.1675 8.96333 18.7125 7.985 17.9192 7.31667C17.771 7.19349 17.6551 7.03611 17.5813 6.85812C17.5076 6.68013 17.4782 6.48686 17.4958 6.295C17.5401 5.78587 17.4723 5.27323 17.2972 4.7931C17.1221 4.31297 16.8441 3.877 16.4825 3.51583C16.1211 3.15485 15.6852 2.87714 15.2053 2.70211C14.7254 2.52709 14.2131 2.45896 13.7042 2.5025C13.512 2.52134 13.3181 2.49258 13.1396 2.41875C12.9611 2.34492 12.8036 2.22829 12.6808 2.07917C12.0133 1.28583 11.0358 0.830833 10 0.830833C8.96417 0.830833 7.98667 1.28583 7.31917 2.07917C7.19559 2.22728 7.03791 2.34319 6.85966 2.41693C6.68142 2.49067 6.48793 2.52003 6.29583 2.5025C5.7868 2.45787 5.27417 2.52549 4.79412 2.70058C4.31406 2.87567 3.87827 3.15396 3.5175 3.51583C3.15594 3.877 2.87785 4.31297 2.70279 4.7931C2.52773 5.27323 2.45993 5.78587 2.50417 6.295C2.5375 6.69 2.38333 7.06167 2.08 7.31667C1.2875 7.985 0.8325 8.9625 0.8325 9.9975C0.8325 11.0325 1.2875 12.0108 2.08083 12.6792C2.38333 12.9333 2.5375 13.3058 2.50417 13.7008C2.45993 14.21 2.52773 14.7226 2.70279 15.2027C2.87785 15.6829 3.15594 16.1188 3.5175 16.48C3.87908 16.8407 4.31498 17.1183 4.79482 17.2933C5.27467 17.4683 5.78691 17.5366 6.29583 17.4933C6.33185 17.49 6.368 17.4884 6.40417 17.4883ZM10.3775 11.8933L14.3267 8.08667C14.4016 8.00907 14.4435 7.90544 14.4436 7.79759C14.4436 7.68973 14.4019 7.58605 14.3271 7.50834C14.2523 7.43063 14.1503 7.38496 14.0425 7.38091C13.9347 7.37687 13.8296 7.41478 13.7492 7.48667L9.79417 11.2983C9.6768 11.4146 9.53765 11.5065 9.38468 11.5689C9.23172 11.6313 9.06795 11.6629 8.90275 11.6619C8.73756 11.6609 8.57418 11.6273 8.42199 11.5631C8.2698 11.4988 8.13178 11.4052 8.01583 11.2875L6.1175 9.52333C6.03508 9.4574 5.93078 9.42505 5.82551 9.43279C5.72025 9.44052 5.6218 9.48776 5.5499 9.56503C5.478 9.64231 5.43797 9.74391 5.43783 9.84946C5.4377 9.95501 5.47747 10.0567 5.54917 10.1342L7.4375 11.8875C7.84417 12.2942 8.37917 12.4975 8.9125 12.4975C9.44583 12.4975 9.975 12.2958 10.3783 11.8925L10.3775 11.8933Z" fill="#EDE2DC"/>
</svg>
